<?xml version="1.0" encoding="UTF-8"?>
<svg version="1.1" xmlns="http://www.w3.org/2000/svg" width="512" height="512">
<path d="M0 0 C0.91297852 0.16628906 1.82595703 0.33257812 2.76660156 0.50390625 C44.3986228 8.16363077 83.16052206 26.40624883 116 53 C116.54446777 53.44005371 117.08893555 53.88010742 117.64990234 54.33349609 C131.72173929 65.81174863 144.93680647 78.57719064 156 93 C156.75925781 93.93070312 157.51851563 94.86140625 158.30078125 95.8203125 C184.1596216 128.07168914 200.62794761 167.52514646 208 208 C208.16371094 208.83563477 208.32742188 209.67126953 208.49609375 210.53222656 C213.78656862 238.24163521 213.41678597 270.35093304 208 298 C207.83371094 298.91297852 207.66742188 299.82595703 207.49609375 300.76660156 C199.83636923 342.3986228 181.59375117 381.16052206 155 414 C154.55994629 414.54446777 154.11989258 415.08893555 153.66650391 415.64990234 C142.18825137 429.72173929 129.42280936 442.93680647 115 454 C114.06929688 454.75925781 113.13859375 455.51851563 112.1796875 456.30078125 C79.92831086 482.1596216 40.47485354 498.62794761 0 506 C-0.83563477 506.16371094 -1.67126953 506.32742188 -2.53222656 506.49609375 C-30.24163521 511.78656862 -62.35093304 511.41678597 -90 506 C-90.91297852 505.83371094 -91.82595703 505.66742188 -92.76660156 505.49609375 C-134.3986228 497.83636923 -173.16052206 479.59375117 -206 453 C-206.54446777 452.55994629 -207.08893555 452.11989258 -207.64990234 451.66650391 C-221.72173929 440.18825137 -234.93680647 427.42280936 -246 413 C-246.75925781 412.06929688 -247.51851562 411.13859375 -248.30078125 410.1796875 C-274.1596216 377.92831086 -290.62794761 338.47485354 -298 298 C-298.16371094 297.16436523 -298.32742188 296.32873047 -298.49609375 295.46777344 C-303.78656862 267.75836479 -303.41678597 235.64906696 -298 208 C-297.83371094 207.08702148 -297.66742188 206.17404297 -297.49609375 205.23339844 C-289.83636923 163.6013772 -271.59375117 124.83947794 -245 92 C-244.55994629 91.45553223 -244.11989258 90.91106445 -243.66650391 90.35009766 C-232.18825137 76.27826071 -219.42280936 63.06319353 -205 52 C-204.06929688 51.24074219 -203.13859375 50.48148438 -202.1796875 49.69921875 C-169.92831086 23.8403784 -130.47485354 7.37205239 -90 0 C-89.16436523 -0.16371094 -88.32873047 -0.32742188 -87.46777344 -0.49609375 C-59.75836479 -5.78656862 -27.64906696 -5.41678597 0 0 Z M-192 85 C-192.79712402 85.7125293 -192.79712402 85.7125293 -193.61035156 86.43945312 C-199.56968203 91.79024774 -205.46453482 97.20801326 -211 103 C-211.97839844 103.96873047 -211.97839844 103.96873047 -212.9765625 104.95703125 C-213.62367188 105.63121094 -214.27078125 106.30539063 -214.9375 107 C-215.52402344 107.598125 -216.11054688 108.19625 -216.71484375 108.8125 C-219.50695769 113.56503437 -217.85828619 119.55423425 -216.77832031 124.69799805 C-216.51094055 125.98590744 -216.24356079 127.27381683 -215.96807861 128.60075378 C-215.67202767 129.98787036 -215.37536169 131.37485578 -215.078125 132.76171875 C-214.77363265 134.19940711 -214.46933487 135.63713668 -214.16522217 137.0749054 C-213.52805593 140.0775103 -212.88495062 143.07877396 -212.23828125 146.0793457 C-211.41169975 149.91953531 -210.60564624 153.76372203 -209.80464554 157.60931683 C-209.18346505 160.57553607 -208.54867945 163.53872214 -207.91005707 166.50123024 C-207.60700738 167.9175439 -207.3088212 169.33490751 -207.01566315 170.75330162 C-206.60447217 172.73527872 -206.1723015 174.71286807 -205.73925781 176.69018555 C-205.49943176 177.81490768 -205.25960571 178.93962982 -205.01251221 180.09843445 C-203.47954206 184.49148111 -201.11897635 186.36969295 -197.13769531 188.61230469 C-196.04553711 189.12696289 -194.95337891 189.64162109 -193.828125 190.171875 C-192.93500862 190.59771126 -192.93500862 190.59771126 -192.02384949 191.03215027 C-190.10292796 191.94614556 -188.17673752 192.84833866 -186.25 193.75 C-183.61973066 194.99322356 -180.99160561 196.24095233 -178.36328125 197.48828125 C-177.39993614 197.94377098 -177.39993614 197.94377098 -176.41712952 198.40846252 C-172.80139218 200.12301273 -169.21873194 201.88525104 -165.66796875 203.73046875 C-164.93352539 204.11170898 -164.19908203 204.49294922 -163.44238281 204.88574219 C-162.1463177 205.56565555 -160.85489929 206.25453468 -159.56933594 206.95410156 C-156.47290697 208.61812927 -156.47290697 208.61812927 -153.05151367 208.7277832 C-150.8006308 207.92927293 -149.224681 206.93298931 -147.3046875 205.515625 C-146.59836182 204.99943604 -145.89203613 204.48324707 -145.16430664 203.95141602 C-144.40883545 203.38994873 -143.65336426 202.82848145 -142.875 202.25 C-141.24623712 201.05579402 -139.61732683 199.86178907 -137.98828125 198.66796875 C-137.1576416 198.05614746 -136.32700195 197.44432617 -135.47119141 196.81396484 C-132.41807655 194.5728422 -129.34532283 192.35993691 -126.27001953 190.14941406 C-118.50762584 184.56928146 -110.80000642 178.91756098 -103.11230469 173.23510742 C-97.70603349 169.24357693 -92.26869086 165.29794409 -86.8125 161.375 C-80.81076995 157.05698032 -74.85254406 152.68611628 -68.9375 148.25 C-68.25212158 147.73614746 -67.56674316 147.22229492 -66.8605957 146.69287109 C-63.81693402 144.48062476 -63.81693402 144.48062476 -61 142 C-60.90603943 140.06693502 -60.88256483 138.13041162 -60.88647461 136.19506836 C-60.88655014 134.95385727 -60.88662567 133.71264618 -60.88670349 132.43382263 C-60.89181089 131.0691626 -60.8970269 129.70450298 -60.90234375 128.33984375 C-60.904208 126.95121817 -60.90563187 125.56259193 -60.90663147 124.17396545 C-60.91045613 120.51278885 -60.92028597 116.8516517 -60.93133545 113.19049072 C-60.94155068 109.45707737 -60.94612933 105.72365766 -60.95117188 101.99023438 C-60.96190829 94.66013823 -60.97898409 87.33007464 -61 80 C-61.6381514 79.66823257 -62.2763028 79.33646515 -62.93379211 78.99464417 C-65.88996736 77.45704738 -68.84537625 75.91798297 -71.80078125 74.37890625 C-72.80403442 73.85735962 -73.8072876 73.33581299 -74.84094238 72.79846191 C-87.26279213 66.32651084 -99.5314575 59.57732659 -111.7890625 52.80078125 C-113.18088745 52.03229858 -113.18088745 52.03229858 -114.60083008 51.24829102 C-116.37528681 50.26784256 -118.14860951 49.28533818 -119.9206543 48.30053711 C-120.70609619 47.86620361 -121.49153809 47.43187012 -122.30078125 46.984375 C-122.99341064 46.59991211 -123.68604004 46.21544922 -124.3996582 45.81933594 C-138.60571986 38.54617912 -181.61756675 75.7059951 -192 85 Z M29.30078125 48.7890625 C28.18614502 49.39443848 27.07150879 49.99981445 25.9230957 50.62353516 C24.7194774 51.29053421 23.51594759 51.95769298 22.3125 52.625 C21.06851982 53.30491276 19.82396372 53.98377277 18.57885742 54.66162109 C16.00309693 56.0652982 13.43025662 57.47412695 10.859375 58.88671875 C7.14627146 60.9240216 3.41971516 62.93546325 -0.3125 64.9375 C-1.46919189 65.55802246 -2.62588379 66.17854492 -3.81762695 66.81787109 C-5.48571411 67.7123999 -5.48571411 67.7123999 -7.1875 68.625 C-9.26485597 69.741196 -11.34170749 70.85833152 -13.41796875 71.9765625 C-14.28188232 72.44143066 -15.1457959 72.90629883 -16.03588867 73.38525391 C-20.03776831 75.56534055 -24.01894453 77.78216796 -28 80 C-28.41991818 87.98844354 -28.73819228 95.97218204 -28.93261909 103.96898174 C-29.02602509 107.68425046 -29.15219632 111.39190335 -29.35791016 115.1027832 C-30.79893983 130.96775943 -30.79893983 130.96775943 -26.32824707 145.55865479 C-22.20751056 149.74767144 -17.43292594 152.44324125 -12.15667725 154.94400024 C-9.4171248 156.28540018 -7.10703838 157.98694415 -4.71875 159.875 C-4.01226318 160.39779541 -3.30577637 160.92059082 -2.57788086 161.45922852 C-1.54932983 162.2219104 -1.54932983 162.2219104 -0.5 163 C7.87838089 169.19158443 16.31109441 175.30475805 24.76611328 181.39111328 C27.76327952 183.54972809 30.75768809 185.7121389 33.75073242 187.87646484 C35.23973907 188.95123899 36.73076375 190.02322332 38.22387695 191.09228516 C42.17390866 193.92578725 46.07166259 196.80928205 49.921875 199.77734375 C50.73011719 200.38964844 51.53835938 201.00195312 52.37109375 201.6328125 C53.92298091 202.81010621 55.46280947 204.00351799 56.98828125 205.21484375 C57.68824219 205.74078125 58.38820313 206.26671875 59.109375 206.80859375 C59.71749023 207.28095459 60.32560547 207.75331543 60.95214844 208.23999023 C64.6778059 209.62267641 67.63766595 207.61615868 71.08520508 206.05690002 C73.54184202 204.90966951 75.97891067 203.72729744 78.4140625 202.53515625 C79.30612396 202.10118027 80.19818542 201.66720428 81.11727905 201.22007751 C82.99575881 200.30490727 84.87331594 199.38784109 86.75 198.46899414 C89.61953595 197.0651731 92.49312832 195.66992344 95.3671875 194.27539062 C97.19556312 193.38332599 99.02369652 192.49076469 100.8515625 191.59765625 C101.70891998 191.18193863 102.56627747 190.76622101 103.44961548 190.33790588 C104.25079803 189.94417282 105.05198059 189.55043976 105.87744141 189.14477539 C106.57882233 188.80217178 107.28020325 188.45956818 108.00283813 188.10658264 C112.61691043 185.60228129 112.61691043 185.60228129 115.06393433 181.05337524 C115.32755768 179.84934052 115.59118103 178.64530579 115.86279297 177.40478516 C116.01289322 176.73938217 116.16299347 176.07397919 116.31764221 175.38841248 C116.80854553 173.19182841 117.27598583 170.9910109 117.7421875 168.7890625 C118.07659441 167.25811886 118.41198671 165.72739015 118.74832153 164.1968689 C119.4493324 160.98950188 120.138855 157.77993591 120.8203125 154.56835938 C121.693855 150.45566312 122.59474607 146.34954516 123.50424004 142.24466896 C124.20131768 139.0848079 124.88418585 135.92200645 125.56277847 132.75812912 C125.88944889 131.24297025 126.22041917 129.72873175 126.55578232 128.21547318 C127.02278094 126.09776061 127.47058293 123.97684959 127.91357422 121.85400391 C128.30184891 120.04556503 128.30184891 120.04556503 128.69796753 118.20059204 C129.09552222 113.98776562 128.13501159 111.50318849 125.61816406 108.16992188 C124.82490723 107.3278418 124.82490723 107.3278418 124.015625 106.46875 C123.41733887 105.82953613 122.81905273 105.19032227 122.20263672 104.53173828 C121.5582666 103.86126465 120.91389648 103.19079102 120.25 102.5 C119.5811377 101.7972998 118.91227539 101.09459961 118.22314453 100.37060547 C97.92999781 79.24643791 75.23128579 63.05764116 49 50 C48.04867187 49.52433594 47.09734375 49.04867187 46.1171875 48.55859375 C39.60048107 45.47229879 35.82846142 45.2018126 29.30078125 48.7890625 Z M-216.13671875 218.90625 C-220.53007457 223.37361334 -224.83038153 227.86270957 -228.90625 232.62109375 C-231.78697743 235.89415906 -234.76868129 239.06865418 -237.75 242.25 C-242.98006638 247.83315977 -248.20750312 253.41552137 -253.30859375 259.1171875 C-255.21948719 261.16397902 -257.08980377 263.01968423 -259.16015625 264.8828125 C-263.14636284 268.57548765 -266.57103872 271.77934071 -267.640625 277.31640625 C-267.48222123 281.32490175 -266.83865135 285.09264712 -266 289 C-265.69742116 290.63272075 -265.39536429 292.26553829 -265.09375 293.8984375 C-260.6655865 316.35435994 -253.00919454 338.10432832 -242.33691406 358.33398438 C-241.01628307 360.96752902 -239.90518563 363.62772759 -238.8046875 366.359375 C-236.62978712 371.30942732 -234.44441421 375.74419572 -230 379 C-222.71308847 381.62395988 -214.77734494 381.10964411 -207.14257812 380.99902344 C-202.58683803 380.96243888 -198.06094817 381.22093156 -193.515625 381.5078125 C-192.71076157 381.55846863 -191.90589813 381.60912476 -191.0766449 381.66131592 C-189.45574179 381.76450112 -187.83488654 381.86844095 -186.21408081 381.97314453 C-182.37957948 382.21560566 -178.5436961 382.42785391 -174.70703125 382.6328125 C-173.4125708 382.70387207 -172.11811035 382.77493164 -170.78442383 382.84814453 C-168.91113403 382.92331299 -168.91113403 382.92331299 -167 383 C-166.28580399 383.03082169 -165.57160797 383.06164337 -164.83576965 383.09339905 C-160.24922231 383.25669517 -160.24922231 383.25669517 -156.34765625 380.98046875 C-155.59355469 380.05878906 -154.83945313 379.13710938 -154.0625 378.1875 C-153.216875 377.17816406 -152.37125 376.16882813 -151.5 375.12890625 C-150.66556177 374.08682127 -149.83219545 373.04387691 -149 372 C-147.88625 370.65228516 -147.88625 370.65228516 -146.75 369.27734375 C-145.28193951 367.49732041 -143.82499931 365.70807159 -142.37890625 363.91015625 C-140.62264155 361.76168794 -138.84656112 359.65240997 -137.02734375 357.55859375 C-136.52452881 356.97706543 -136.02171387 356.39553711 -135.50366211 355.79638672 C-134.52181487 354.66420957 -133.53456206 353.53669144 -132.54125977 352.41455078 C-130.15876541 349.65695858 -128.49103776 347.63331002 -128 344 C-128.41317383 341.80700834 -128.41317383 341.80700834 -129.26904297 339.53417969 C-129.57522552 338.64664001 -129.88140808 337.75910034 -130.1968689 336.84466553 C-130.54182404 335.88014465 -130.88677917 334.91562378 -131.2421875 333.921875 C-131.59737457 332.90240784 -131.95256165 331.88294067 -132.31851196 330.83258057 C-133.49372465 327.46801772 -134.68414045 324.10905339 -135.875 320.75 C-136.69159303 318.42347098 -137.50733899 316.09664449 -138.32226562 313.76953125 C-140.443631 307.72066809 -142.57833157 301.67659661 -144.71618652 295.63354492 C-146.38786124 290.90224612 -148.05079557 286.16789955 -149.71340942 281.43341064 C-151.63823778 275.95418368 -153.56859466 270.47691145 -155.5 265 C-155.86607361 263.96081421 -156.23214722 262.92162842 -156.60931396 261.85095215 C-157.64286707 258.92042288 -158.68013942 255.99124007 -159.71875 253.0625 C-160.02318024 252.19820374 -160.32761047 251.33390747 -160.64126587 250.44342041 C-160.9240036 249.64869324 -161.20674133 248.85396606 -161.49804688 248.03515625 C-161.86295227 247.00467163 -161.86295227 247.00467163 -162.23522949 245.95336914 C-164.29958422 240.68061505 -165.94385464 239.16010845 -171.16015625 236.609375 C-171.77799484 236.30328812 -172.39583344 235.99720123 -173.03239441 235.68183899 C-175.03682098 234.69262945 -177.04920955 233.72102419 -179.0625 232.75 C-180.43434776 232.07826695 -181.80576696 231.40565798 -183.17675781 230.73217773 C-186.51407525 229.09701874 -189.85838288 227.47689607 -193.206604 225.86419678 C-194.82170428 225.08591665 -196.43512795 224.30415949 -198.04833984 223.52197266 C-200.44536214 222.36121163 -202.84568206 221.20805964 -205.25 220.0625 C-205.92683838 219.73926758 -206.60367676 219.41603516 -207.30102539 219.08300781 C-211.94895882 216.58025403 -211.94895882 216.58025403 -216.13671875 218.90625 Z M118.09863281 218.78833008 C117.32062317 219.17906204 116.54261353 219.56979401 115.74102783 219.97236633 C114.9035199 220.40043076 114.06601196 220.82849518 113.203125 221.26953125 C112.33612976 221.70633713 111.46913452 222.14314301 110.5758667 222.59318542 C107.797691 223.99399283 105.02368793 225.40283029 102.25 226.8125 C99.48994215 228.21011658 96.72902745 229.6059991 93.96697998 230.99967957 C92.24826054 231.86745697 90.53078576 232.73770535 88.8147583 233.61079407 C88.02414001 234.01098251 87.23352173 234.41117096 86.41894531 234.82348633 C85.66801102 235.20841751 84.91707672 235.59334869 84.14338684 235.98994446 C82.16367314 236.92287021 80.22666321 237.57152602 78.14819336 238.24023438 C73.55230927 240.80922488 72.84565364 243.96309344 71.30078125 248.82421875 C70.98717651 249.73421631 70.67357178 250.64421387 70.35046387 251.58178711 C69.31293525 254.60919228 68.31288877 257.64764022 67.3125 260.6875 C66.22215727 263.90907064 65.12333627 267.12767951 64.02458191 270.34638977 C63.24918308 272.62106384 62.47713151 274.89688133 61.70820618 277.17375183 C58.94539935 285.33244057 56.05667577 293.43687893 53.08898354 301.52255821 C52.37938365 303.45680096 51.67221067 305.39191313 50.96586609 307.3273468 C50.50027821 308.60275398 50.0346868 309.87815987 49.5690918 311.15356445 C49.22622777 312.09282886 49.22622777 312.09282886 48.87643719 313.05106831 C47.73370009 316.17834486 46.58424446 319.30292406 45.42642212 322.4246521 C44.12955005 325.92743239 42.85369522 329.43722306 41.58203125 332.94921875 C41.18818237 333.99609863 40.7943335 335.04297852 40.3885498 336.12158203 C40.04223511 337.089104 39.69592041 338.05662598 39.33911133 339.0534668 C38.87641594 340.31189644 38.87641594 340.31189644 38.40437317 341.5957489 C37.88575737 344.67924378 38.58669637 346.24933698 40 349 C41.84729024 351.35075599 41.84729024 351.35075599 44.0625 353.625 C48.10436928 357.98970229 51.90572381 362.48328347 55.6484375 367.10546875 C58.26095295 370.3212062 60.90696929 373.50728591 63.5625 376.6875 C64.00456787 377.21714355 64.44663574 377.74678711 64.90209961 378.29248047 C65.93431282 379.52867134 66.96709087 380.76439054 68 382 C76.12561717 380.5381733 84.24164712 379.02581403 92.3550415 377.49780273 C94.23932189 377.14316582 96.12373584 376.78923826 98.00823975 376.43579102 C104.84016621 375.15366628 111.66910165 373.85683935 118.49545288 372.54534912 C120.83372121 372.09808559 123.17277998 371.654935 125.51260376 371.21588135 C128.84395443 370.58984189 132.17214026 369.94899102 135.5 369.3046875 C137.02182137 369.0235611 137.02182137 369.0235611 138.5743866 368.73675537 C139.50890152 368.55276184 140.44341644 368.36876831 141.40625 368.17919922 C142.22416016 368.02329315 143.04207031 367.86738708 143.88476562 367.70675659 C150.50602692 365.49441543 153.38100688 356.28992738 156.3046875 350.56640625 C167.27037488 328.37169778 178.78333964 299.28615901 177 274 C175.8181943 271.89920251 175.8181943 271.89920251 173.9375 270.5 C171.42057367 268.26273215 169.11192822 266.073813 166.9375 263.5 C163.4388807 259.44065391 159.78986713 255.53348127 156.125 251.625 C151.45932724 246.64722372 146.84034167 241.63692413 142.296875 236.546875 C140.50856333 234.56391717 138.70704696 232.59761649 136.890625 230.640625 C136.07972412 229.76688232 136.07972412 229.76688232 135.25244141 228.87548828 C134.19388341 227.7368953 133.13374471 226.59976918 132.07177734 225.46435547 C130.01726859 223.25427448 128.06570241 221.09408092 126.3359375 218.6171875 C125.89507812 218.08351562 125.45421875 217.54984375 125 217 C121.88471212 217 120.80275616 217.41710479 118.09863281 218.78833008 Z M-112.81103706 378.16625404 C-114.56165544 380.86624516 -116.60314851 383.23803733 -118.6875 385.6875 C-119.37714844 386.55761719 -120.06679687 387.42773438 -120.77734375 388.32421875 C-122.42761035 390.31091931 -124.07285118 392.12475829 -125.87890625 393.95703125 C-126.35690674 394.46468018 -126.83490723 394.9723291 -127.32739258 395.49536133 C-128.66935933 396.91470938 -130.04470826 398.30227965 -131.421875 399.6875 C-133.24187312 403.50769408 -132.99876306 404.08254972 -131.83349609 407.96069336 C-131.54390015 408.93972626 -131.2543042 409.91875916 -130.95593262 410.92745972 C-130.64047485 411.94139801 -130.32501709 412.9553363 -130 414 C-129.70677856 414.95617218 -129.41355713 415.91234436 -129.1114502 416.89749146 C-128.17204535 419.91779906 -127.21031891 422.93018891 -126.2421875 425.94140625 C-125.8936673 427.03090073 -125.54514709 428.1203952 -125.18606567 429.24290466 C-124.45607164 431.52305889 -123.72492792 433.80284534 -122.99267578 436.08227539 C-121.86836027 439.58317482 -120.74837968 443.08544022 -119.62890625 446.58789062 C-118.9169209 448.80997731 -118.20469023 451.03198541 -117.4921875 453.25390625 C-117.15677948 454.30276505 -116.82137146 455.35162384 -116.47579956 456.43226624 C-116.16522614 457.39764816 -115.85465271 458.36303009 -115.53466797 459.35766602 C-115.26169891 460.20829117 -114.98872986 461.05891632 -114.70748901 461.93531799 C-114.04186932 464.02720141 -114.04186932 464.02720141 -113 466 C-110.62406753 466.90717421 -108.31279092 467.67069418 -105.875 468.375 C-105.13451416 468.59124023 -104.39402832 468.80748047 -103.63110352 469.03027344 C-88.47862629 473.25540886 -72.21260071 476.10991293 -56.4609375 476.203125 C-55.66572189 476.21009399 -54.87050629 476.21706299 -54.05119324 476.22424316 C-51.49240788 476.24156815 -48.9338416 476.24796502 -46.375 476.25 C-45.06509598 476.25151062 -45.06509598 476.25151062 -43.72872925 476.25305176 C-31.33484425 476.24337782 -18.8924972 476.19896081 -6.72216797 473.55029297 C-4 473 -4 473 -0.14111328 472.54736328 C7.26689339 471.52652171 7.26689339 471.52652171 13.40060425 467.58081055 C16.48676778 463.23938063 18.32302156 458.30612474 20.25 453.375 C20.90048622 451.84162921 21.55697461 450.31079172 22.21923828 448.7824707 C23.55022367 445.69320153 24.85073554 442.59381101 26.12792969 439.48193359 C28.82741113 432.94923052 31.86213198 426.58036576 34.875 420.1875 C35.83411367 418.12005634 36.79013212 416.05117223 37.7421875 413.98046875 C38.1326123 413.13379639 38.52303711 412.28712402 38.92529297 411.41479492 C41.19499169 406.86397498 41.19499169 406.86397498 41.875 401.97265625 C40.68632964 399.29284137 39.01699902 397.56305278 37 395.4375 C33.77424968 391.95775359 30.66965927 388.44089914 27.6875 384.75 C26.60717247 383.46907722 26.60717247 383.46907722 25.50502014 382.16227722 C23.73562218 380.01276593 22.24717966 377.8213315 20.80369568 375.44258118 C17.58991668 370.52170169 14.23815411 366.05709801 8.47258377 364.17492294 C0.97540509 362.81060192 -6.62338017 363.01236742 -14.21484375 363.10546875 C-16.67763969 363.0934785 -19.14041907 363.0774851 -21.60316467 363.05769348 C-26.75093084 363.03262123 -31.89528837 363.0583216 -37.04272461 363.11987305 C-43.613267 363.19402853 -50.17506842 363.13774437 -56.74507809 363.04265881 C-61.82717857 362.98431216 -66.90722743 362.99757737 -71.98947334 363.03170204 C-74.40980145 363.03914679 -76.83031137 363.02436184 -79.25034904 362.98613548 C-95.11051161 362.78413973 -104.04464222 364.28466753 -112.81103706 378.16625404 Z " fill="#000000" transform="translate(301,3)"/>
</svg>
